<svg xmlns="http://www.w3.org/2000/svg" xmlns:svg="http://www.w3.org/2000/svg" id="svg4" width="48" height="48" version="1.1" viewBox="0 0 48 48"><path id="path2" d="m 24,14 c -5.52,0 -10,4.48 -10,10 0,5.52 4.48,10 10,10 5.52,0 10,-4.48 10,-10 C 34,18.48 29.52,14 24,14 Z M 24,4 C 12.96,4 4,12.96 4,24 4,35.04 12.96,44 24,44 35.04,44 44,35.04 44,24 44,12.96 35.04,4 24,4 Z m 0,36 C 15.16,40 8,32.84 8,24 8,15.16 15.16,8 24,8 c 8.84,0 16,7.16 16,16 0,8.84 -7.16,16 -16,16 z" style="stroke-width:2"/></svg>