<svg xmlns="http://www.w3.org/2000/svg" xmlns:svg="http://www.w3.org/2000/svg" id="svg1247" width="46" height="30" version="1.1" viewBox="0 0 46 30"><defs id="defs1251"><filter style="color-interpolation-filters:sRGB" id="filter2403" width="1.162" height="1.162" x="-.081" y="-.081"><feGaussianBlur id="feGaussianBlur2405" stdDeviation=".811"/></filter></defs><g id="g1919" transform="translate(3,3)"><rect id="rect2" width="36" height="16" x="4" y="4" fill="#5657f5" rx="8" ry="8" style="opacity:.2;fill:#fff;fill-opacity:1;stroke-width:.999998"/><circle id="circle1921" cx="12" cy="13.096" r="12" fill="#fff" style="opacity:.15;mix-blend-mode:normal;fill:#000;fill-opacity:1;stroke-width:1.99999;filter:url(#filter2403)"/><circle id="circle4" cx="12" cy="12" r="12" fill="#fff" style="fill:#44454b;fill-opacity:1;stroke-width:1.99999"/><path id="rect1276" style="opacity:.35;fill:#fff;fill-rule:evenodd;stroke-width:3.22252;stroke-linecap:round;stroke-linejoin:round;paint-order:stroke fill markers;stop-color:#000" d="m 8.1104906,7.6093061 c -0.127806,-3.6e-6 -0.2555812,0.050503 -0.3535152,0.1484372 -0.1958686,0.1958686 -0.1958688,0.5111631 -3e-7,0.7070315 l 3.5359929,3.5359932 -3.5352247,3.535225 c -0.1958686,0.195868 -0.1958686,0.511163 0,0.707032 0.1958686,0.195868 0.5111632,0.195868 0.7070311,0 L 12,12.7078 l 3.535226,3.535225 c 0.195868,0.195869 0.511163,0.195869 0.707031,0 0.195869,-0.195868 0.195869,-0.511161 0,-0.707031 l -3.535225,-3.535226 3.535993,-3.5359935 c 0.195868,-0.1958682 0.195868,-0.5111629 0,-0.7070312 -0.195869,-0.1958688 -0.511163,-0.1958687 -0.707032,-5e-7 L 12,11.293736 8.4640069,7.757743 C 8.3660727,7.6598088 8.2382987,7.6093074 8.1104906,7.6093061 Z"/></g></svg>