<svg xmlns="http://www.w3.org/2000/svg" xmlns:svg="http://www.w3.org/2000/svg" id="svg6" width="46" height="30" version="1.1" viewBox="0 0 46 30"><defs id="defs10"><filter style="color-interpolation-filters:sRGB" id="filter3052" width="1.216" height="1.216" x="-.108" y="-.108"><feGaussianBlur id="feGaussianBlur3054" stdDeviation="1.08"/></filter></defs><g id="g2568" transform="translate(3,3)"><circle id="circle2570" cx="28" cy="13" r="12" fill="#fff" style="opacity:.25;fill:#413fc0;fill-opacity:1;stroke-width:1.99999;filter:url(#filter3052)"/><rect id="rect2" width="36" height="16" x="0" y="4" fill="#5657f5" rx="8" ry="8" style="opacity:.35;fill:#7c4dff;fill-opacity:1;stroke-width:.999998"/><circle id="circle4" cx="28" cy="12" r="12" fill="#fff" style="fill:#7c4dff;fill-opacity:1;stroke-width:1.99999"/><path id="rect1161" style="opacity:1;fill:#fff;fill-opacity:1;fill-rule:evenodd;stroke-width:2.19089;stroke-linecap:round;stroke-linejoin:round;paint-order:stroke fill markers;stop-color:#000" d="m 33.151142,8.0558889 c -0.127813,-3.5e-6 -0.255582,0.048551 -0.353516,0.1464851 L 27,14 23.600137,10.598158 c -0.195868,-0.195868 -0.513116,-0.195868 -0.708984,0 -0.195868,0.195868 -0.195868,0.513116 -10e-7,0.708985 l 3.755359,3.753378 c 0.02448,0.02448 0.05035,0.04611 0.07815,0.06443 0.02772,0.01838 0.05781,0.03268 0.08789,0.04491 0.03008,0.01225 0.06031,0.02122 0.0918,0.02734 0.03148,0.0061 0.06375,0.0098 0.0957,0.0098 0.03195,0 0.06423,-0.0036 0.0957,-0.0098 0.03148,-0.0061 0.06171,-0.0151 0.0918,-0.02734 0.03008,-0.01223 0.06015,-0.02656 0.08789,-0.04491 0.01374,-0.0091 0.02609,-0.02071 0.03905,-0.03127 0.01312,-0.01071 0.02679,-0.02099 0.03903,-0.03323 l 6.151143,-6.151142 c 0.195873,-0.1958767 0.195873,-0.5111713 5e-6,-0.7070391 C 33.406739,8.1043364 33.278962,8.055785 33.151153,8.055785 Z"/></g></svg>